<svg width="320" height="96" viewBox="0 0 320 96" fill="none" xmlns="http://www.w3.org/2000/svg">
  <rect width="320" height="96" rx="24" fill="#0F172A"/>
  <rect x="10" y="10" width="76" height="76" rx="20" fill="#F59E0B"/>
  <path d="M30 29H50.5C60.2 29 66 33.5 66 41.2C66 46.5 63 50.1 57.8 51.6C64 52.6 67.5 56.6 67.5 63.1C67.5 71.8 60.7 77 49.9 77H30V29ZM47.4 47.6C52 47.6 54.7 45.6 54.7 41.9C54.7 38.3 52 36.4 47.4 36.4H41.2V47.6H47.4ZM48.8 69.5C54.2 69.5 57.2 67.2 57.2 63C57.2 58.8 54.2 56.5 48.8 56.5H41.2V69.5H48.8Z" fill="#0F172A"/>
  <path d="M112 31H126.4C143.8 31 154.2 39.8 154.2 54.1C154.2 68.3 143.7 77 126.1 77H112V31ZM125.8 68.1C137.1 68.1 143.4 62.8 143.4 54.1C143.4 45.2 137 39.9 125.8 39.9H122.7V68.1H125.8Z" fill="#F8FAFC"/>
  <path d="M162.5 31H182.7C194.8 31 202 37.4 202 48.4C202 59.3 194.8 65.8 182.7 65.8H173.2V77H162.5V31ZM181.3 57.2C188.1 57.2 191.4 54.2 191.4 48.4C191.4 42.6 188.1 39.7 181.3 39.7H173.2V57.2H181.3Z" fill="#F8FAFC"/>
  <path d="M214.4 31H224.9L244.9 77H233.6L229.5 67H209.4L205.3 77H194.4L214.4 31ZM226 59L219.5 43.1L212.9 59H226Z" fill="#F8FAFC"/>
  <path d="M250.8 31H271C283.1 31 290.3 37.4 290.3 48.4C290.3 59.3 283.1 65.8 271 65.8H261.5V77H250.8V31ZM269.6 57.2C276.4 57.2 279.7 54.2 279.7 48.4C279.7 42.6 276.4 39.7 269.6 39.7H261.5V57.2H269.6Z" fill="#F8FAFC"/>
</svg>
